# xmcd
#
# Track frame offsets: 
#        150
#        12113
#        24544
#        35360
#        45407
#        54748
#        67044
#        78577
#        91884
#        103871
#        113383
#        122431
#        132255
#        145047
#        155259
#        167568
#        179270
#        190335
#        201608
#        213777
#        226180
#        236729
#        246920
#        260512
#        269524
#        278657
#        289156
#        302893
#        316768
#        324617
#        336973
#        348159
#
# Disc length: 4768 seconds
#
# Revision: 0
# Processed by: cddbd v1.5.2PL0 Copyright (c) Steve Scherf et al.
# Submitted via: ExactAudioCopy v0.99pb3
#
DISCID=c9129e20
DTITLE=Earl Hooker - Earl Hooker And His Blues Guitar
DYEAR=1900
DGENRE=Blues
TTITLE0=Wild Moments
TTITLE1=Blue Guitar - 1
TTITLE2=Frog Hop
TTITLE3=Blues In 'D' Natural
TTITLE4=Sweet Soozie
TTITLE5=These Cotton Pickin' Blues
TTITLE6=Do The Chicken
TTITLE7=Guitar Rumba
TTITLE8=Off The Hook
TTITLE9=Rockin' With The Kid
TTITLE10=Senorita Junita
TTITLE11=How Long Can This Go On
TTITLE12=Tanya
TTITLE13=Move On Down The Line
TTITLE14=Blue Guitar Blues
TTITLE15=Swear To Tell The Truth
TTITLE16=Race Track
TTITLE17=That Man
TTITLE18=Shake 'em Up
TTITLE19=Trying To Make A Living
TTITLE20=Dynamite
TTITLE21=Happy Blues
TTITLE22=So Many Hard Times
TTITLE23=Yea Yea
TTITLE24=Win The Dance
TTITLE25=The Drive
TTITLE26=Sweet Angel
TTITLE27=The Hucklebuck
TTITLE28=Chicken
TTITLE29=Blue Guitar - 2
TTITLE30=Universal Rock
TTITLE31=Rocking Wild
EXTD=
EXTT0=
EXTT1=
EXTT2=
EXTT3=
EXTT4=
EXTT5=
EXTT6=
EXTT7=
EXTT8=
EXTT9=
EXTT10=
EXTT11=
EXTT12=
EXTT13=
EXTT14=
EXTT15=
EXTT16=
EXTT17=
EXTT18=
EXTT19=
EXTT20=
EXTT21=
EXTT22=
EXTT23=
EXTT24=
EXTT25=
EXTT26=
EXTT27=
EXTT28=
EXTT29=
EXTT30=
EXTT31=
PLAYORDER=
